HIERARCHY
ROOT root
{
	OFFSET	0	260	24
	CHANNELS 6  Xposition Yposition Zposition Xrotation Yrotation Zrotation
	JOINT spine_3
	{
		OFFSET	0	81.6	10.2
		CHANNELS 3  Xrotation Yrotation Zrotation
		JOINT spine_4
		{
			OFFSET	0	110.4	14.6
			CHANNELS 3  Xrotation Yrotation Zrotation
			JOINT neck_1
			{
				OFFSET	0	71.8	-50.3
				CHANNELS 3  Xrotation Yrotation Zrotation
				JOINT neck_2
				{
					OFFSET	0	86.2	-25.8
					CHANNELS 3  Xrotation Yrotation Zrotation
					JOINT head_ee
					{
						OFFSET	0	179.8	-8.7
						CHANNELS 3  Xrotation Yrotation Zrotation
						End Site
						{
							OFFSET	1	0	0
						}
					}
				}
			}
			JOINT left_clavicle
			{
				OFFSET	-43.2	22.4	-70.8
				CHANNELS 3  Xrotation Yrotation Zrotation
				JOINT left_shoulder
				{
					OFFSET	-93.9	-5.79999	48.7
					CHANNELS 3  Xrotation Yrotation Zrotation
					JOINT left_elbow
					{
						OFFSET	-291.4	-30.8	15.2
						CHANNELS 3  Xrotation Yrotation Zrotation
						JOINT left_lowarm_twist
						{
							OFFSET	-110.7	-3.89999	13.6
							CHANNELS 3  Xrotation Yrotation Zrotation
							JOINT left_hand
							{
								OFFSET	-110.7	-3.89999	13.6
								CHANNELS 3  Xrotation Yrotation Zrotation
								JOINT left_ee
								{
									OFFSET	-80.8	-5.10001	12.1
									CHANNELS 3  Xrotation Yrotation Zrotation
									End Site
									{
										OFFSET	1	0	0
									}
								}
							}
						}
					}
				}
			}
			JOINT right_clavicle
			{
				OFFSET	43.2	22.4	-70.8
				CHANNELS 3  Xrotation Yrotation Zrotation
				JOINT right_shoulder
				{
					OFFSET	93.9	-5.79999	48.7
					CHANNELS 3  Xrotation Yrotation Zrotation
					JOINT right_elbow
					{
						OFFSET	291.4	-30.8	15.2
						CHANNELS 3  Xrotation Yrotation Zrotation
						JOINT right_lowarm_twist
						{
							OFFSET	110.7	-3.89999	13.6
							CHANNELS 3  Xrotation Yrotation Zrotation
							JOINT right_hand
							{
								OFFSET	110.7	-3.89999	13.6
								CHANNELS 3  Xrotation Yrotation Zrotation
								JOINT right_ee
								{
									OFFSET	80.8	-5.10001	12.1
									CHANNELS 3  Xrotation Yrotation Zrotation
									End Site
									{
										OFFSET	1	0	0
									}
								}
							}
						}
					}
				}
			}
		}
	}
	JOINT spine_2
	{
		OFFSET	0	-124.9	-9.1
		CHANNELS 3  Xrotation Yrotation Zrotation
		JOINT spine_1
		{
			OFFSET	0	-112	10
			CHANNELS 3  Xrotation Yrotation Zrotation
			JOINT left_hip
			{
				OFFSET	-82.8	-137.5	0.300001
				CHANNELS 3  Xrotation Yrotation Zrotation
				JOINT left_knee
				{
					OFFSET	-28.2	-396.7	2.2
					CHANNELS 3  Xrotation Yrotation Zrotation
					JOINT left_ankle
					{
						OFFSET	-11.7	-411.3	35.4
						CHANNELS 3  Xrotation Yrotation Zrotation
						JOINT left_toes
						{
							OFFSET	0	-60	-88.6
							CHANNELS 3  Xrotation Yrotation Zrotation
							JOINT left_foot_ee
							{
								OFFSET	-22.5	-16.5	-42.2
								CHANNELS 3  Xrotation Yrotation Zrotation
								End Site
								{
									OFFSET	1	0	0
								}
							}
						}
					}
				}
			}
			JOINT right_hip
			{
				OFFSET	82.8	-137.5	0.300001
				CHANNELS 3  Xrotation Yrotation Zrotation
				JOINT right_knee
				{
					OFFSET	28.2	-396.7	2.2
					CHANNELS 3  Xrotation Yrotation Zrotation
					JOINT right_ankle
					{
						OFFSET	11.7	-411.3	35.4
						CHANNELS 3  Xrotation Yrotation Zrotation
						JOINT right_toes
						{
							OFFSET	0	-60	-88.6
							CHANNELS 3  Xrotation Yrotation Zrotation
							JOINT right_foot_ee
							{
								OFFSET	22.5	-16.5	-42.2
								CHANNELS 3  Xrotation Yrotation Zrotation
								End Site
								{
									OFFSET	1	0	0
								}
							}
						}
					}
				}
			}
		}
	}
}
MOTION
Frames: 13
Frame Time: 0.02
3421.22 973.592 -805.288 -3.50507 53.4936 2.53422 4.52932 -0.225623 -2.16557 4.52322 -0.564727 -2.10281 -15.8933 13.9072 4.8956 -16.4007 23.8525 9.56893 -0.0 0.0 -0.0 4.09433 13.9835 8.33408 -17.9311 -24.926 65.3911 0.263594 -7.43957 0.0171373 -12.4387 -0.600424 1.46958 0.804398 6.95557 8.16367 -0.0 0.0 -0.0 9.7592 -13.8553 -17.9613 -48.6522 45.524 -22.4629 1.2092 30.9205 -0.334449 -84.33 8.36807 -5.20055 -6.22284 -29.1907 22.704 0.0 0.0 0.0 -4.52797 0.341535 2.15034 -4.53041 0.477643 2.12427 24.2351 -8.72885 -0.519553 -34.9384 -0.176541 5.27686 29.6276 15.3314 -3.89746 -4.1123 0.0 0.0 -0.0 0.0 -0.0 17.8016 -6.77619 6.02905 -26.5668 -0.16018 -4.03742 20.6881 -29.0964 3.03664 -1.36378 0.0 0.0 0.0 0.0 0.0 
3410.28 978.729 -805.706 -3.30482 55.1385 1.17462 4.59508 -0.12468 -2.29338 4.58807 -0.485219 -2.24495 -15.5221 13.98 5.05107 -15.9998 23.8515 9.65148 -0.0 0.0 -0.0 4.77369 12.9677 9.45772 -16.8758 -25.6564 64.6416 0.320326 -9.01673 0.0252573 -11.8032 -0.562094 1.39786 0.761682 6.76231 7.80695 -0.0 0.0 -0.0 10.0124 -13.5922 -18.4452 -49.7217 43.3418 -23.185 0.984205 25.9909 -0.227145 -84.1703 8.34806 -5.20421 -6.67258 -29.4742 25.1578 0.0 0.0 0.0 -4.59355 0.242367 2.28394 -4.59636 0.387172 2.26391 21.8019 -8.42863 1.11215 -30.8494 0.0105948 4.6775 30.1295 17.3001 -3.97687 -4.63546 0.0 0.0 -0.0 0.0 -0.0 19.7228 -1.00214 6.2385 -30.109 -0.0398773 -4.56764 21.5072 -28.5045 3.13332 -2.36814 0.0 0.0 0.0 0.0 0.0 
3390.87 980.699 -809.27 -2.75582 56.4911 0.372238 4.6121 -0.0716235 -2.34949 4.60467 -0.441683 -2.30873 -17.1281 14.2122 6.21511 -17.6718 23.8739 11.1903 -0.0 0.0 -0.0 5.13707 12.2372 10.0751 -16.1846 -25.6906 64.1832 0.379881 -10.6576 0.0354333 -11.8947 -0.567561 1.40821 0.734829 6.53556 7.54119 -0.0 0.0 -0.0 10.3222 -14.5001 -18.8695 -50.9706 41.0594 -24.0152 0.76024 20.6364 -0.13841 -83.6999 8.28903 -5.21466 -6.87834 -29.3055 26.58 0.0 0.0 0.0 -4.61048 0.190879 2.34282 -4.61347 0.339531 2.32594 20.3397 -5.94632 1.63648 -31.0439 0.00266858 4.70629 30.5025 17.0421 -4.01432 -4.90105 0.0 0.0 -0.0 0.0 -0.0 22.2761 3.04862 5.62227 -32.9699 0.0810985 -4.98995 22.3272 -28.0497 3.23154 -2.56705 0.0 0.0 0.0 0.0 0.0 
3379.49 981.668 -815.376 -2.15479 58.1361 -0.353229 4.50697 -0.0842925 -2.36812 4.49943 -0.457134 -2.32513 -17.2486 14.3949 7.13741 -17.7525 23.7375 12.1301 -0.0 0.0 -0.0 5.51525 10.4553 10.7431 -15.4464 -25.4655 63.1171 0.505875 -14.0686 0.0624213 -11.0241 -0.516193 1.30937 0.699932 6.08329 7.13304 -0.0 0.0 -0.0 10.1776 -15.2015 -18.5129 -51.2341 40.0456 -26.3186 0.610104 16.8164 -0.0901824 -84.0101 8.32796 -5.20782 -7.10042 -29.4287 27.8469 0.0 0.0 0.0 -4.50533 0.213147 2.36002 -4.50835 0.362848 2.34169 17.5434 -6.00349 1.84054 -27.9989 0.115494 4.25266 30.9465 17.5393 -4.06969 -5.07733 0.0 0.0 -0.0 0.0 -0.0 26.4035 6.97592 4.73195 -35.0211 0.180764 -5.28884 23.0366 -27.4599 3.31105 -2.71134 0.0 0.0 0.0 0.0 0.0 
3363.16 980.856 -816.073 -4.03461 60.0708 1.58238 4.31445 -0.117307 -2.12496 4.30843 -0.45136 -2.0798 -18.0416 14.3759 7.91552 -18.5401 23.4129 13.0189 -0.0 0.0 -0.0 5.71247 9.45604 11.1014 -13.7138 -25.5953 62.2802 0.660266 -18.1118 0.105237 -10.166 -0.467047 1.21122 0.719675 5.51561 7.03865 -0.0 0.0 -0.0 9.96346 -15.3976 -18.1119 -52.4136 38.9103 -28.1375 0.58784 16.2356 -0.0838493 -84.111 8.34062 -5.20555 -7.1717 -29.1562 28.5674 0.0 0.0 0.0 -4.31313 0.247061 2.11381 -4.31553 0.381038 2.09382 16.0973 -5.61405 2.31483 -25.0531 0.201543 3.80881 31.412 17.9686 -4.12653 -5.24204 0.0 0.0 -0.0 0.0 -0.0 28.3741 10.4599 3.9769 -36.6532 0.26769 -5.52405 23.6377 -26.5377 3.36856 -2.648 0.0 0.0 0.0 0.0 0.0 
3351.25 980.957 -818.381 -3.32812 61.6332 0.510465 4.13861 -0.0463632 -1.97513 4.13334 -0.357657 -1.94304 -17.4804 14.525 7.52475 -17.9863 23.8155 12.5914 -0.0 0.0 -0.0 5.98644 7.77155 11.6124 -13.1959 -26.0571 61.461 0.793661 -21.4625 0.150414 -9.05028 -0.405355 1.08251 0.893479 4.25313 7.69039 -0.0 0.0 -0.0 9.18164 -15.1727 -16.7921 -52.8083 38.6952 -30.5345 0.581344 16.0655 -0.0820423 -84.4121 8.37836 -5.19865 -6.61695 -28.2512 25.9401 0.0 0.0 0.0 -4.13747 0.179157 1.96754 -4.13957 0.303969 1.95216 12.9936 -4.01952 3.21982 -21.6792 0.271907 3.29591 31.0518 17.3882 -4.07897 -5.23924 0.0 0.0 -0.0 0.0 -0.0 30.8345 17.6086 1.58501 -39.1905 0.416069 -5.88463 22.7279 -29.182 3.30975 -1.44485 0.0 0.0 0.0 0.0 0.0 
3342.1 982.789 -820.259 -2.57163 62.6363 -0.305442 3.9779 -0.0796409 -2.00881 3.97249 -0.395833 -1.97105 -18.4914 14.322 8.04494 -19.0063 23.3173 13.2233 -0.0 0.0 -0.0 6.02013 7.89185 11.6721 -12.6747 -26.5159 61.1563 1.00578 -26.4834 0.236681 -8.57672 -0.379932 1.02754 0.972644 2.96081 7.70423 -0.0 0.0 -0.0 9.09291 -15.2342 -16.6326 -53.0221 37.6965 -31.7831 0.517733 14.3848 -0.0653355 -84.6254 8.40507 -5.19363 -6.28115 -27.5008 24.5259 0.0 0.0 0.0 -3.97672 0.225843 1.99766 -3.97887 0.352476 1.97926 10.3353 -3.04251 3.05122 -19.3912 0.302386 2.94619 30.7504 15.0554 -4.01691 -5.29654 0.0 0.0 -0.0 0.0 -0.0 33.3709 22.1753 0.978953 -38.688 0.385416 -5.81374 19.1203 -28.5809 2.81412 -1.55317 0.0 0.0 0.0 0.0 0.0 
3331.77 984.42 -825.698 -3.25257 63.6791 0.400131 3.86667 0.00982503 -2.08688 3.86073 -0.31981 -2.06226 -19.1053 13.6131 6.60184 -19.6927 22.7975 11.7604 -0.0 0.0 -0.0 6.19342 6.59624 12.0046 -11.921 -25.9753 60.4616 1.2167 -31.0769 0.338312 -7.14331 -0.305769 0.859884 1.01243 1.11903 7.23139 -0.0 0.0 -0.0 8.67316 -14.9664 -15.9446 -53.3644 37.5806 -33.596 0.518228 14.398 -0.0654585 -84.8895 8.43811 -5.18728 -5.92586 -26.4384 23.2312 0.0 0.0 0.0 -3.86539 0.150401 2.08148 -3.86775 0.282517 2.0677 7.81927 -2.17513 2.57714 -15.646 0.322077 2.372 30.5364 14.0144 -3.98305 -5.45156 0.0 0.0 -0.0 0.0 -0.0 35.4252 25.8232 -0.438652 -37.8732 0.337037 -5.69824 16.1917 -28.1365 2.40254 -1.49449 0.0 0.0 0.0 0.0 0.0 
3320.76 982.325 -830.194 -3.26488 64.8966 0.463653 3.61704 -0.0746873 -2.00648 3.61163 -0.390575 -1.96953 -18.813 13.5093 6.13869 -19.4012 22.7978 11.2261 -0.0 0.0 -0.0 6.25409 5.41866 12.1287 -11.1903 -25.6288 59.6092 1.35047 -33.78 0.410063 -6.43575 -0.270717 0.776467 1.02212 -0.175725 6.77137 -0.0 0.0 -0.0 8.4036 -14.819 -15.4996 -53.5759 37.4469 -35.0209 0.518228 14.398 -0.0654585 -85.0811 8.46206 -5.18258 -5.69753 -25.8203 22.3242 0.0 0.0 0.0 -3.61585 0.245863 1.99277 -3.61799 0.372145 1.9731 6.02416 -2.08818 2.28171 -13.1966 0.314645 1.99629 30.3927 13.6055 -3.9637 -5.52328 0.0 0.0 -0.0 0.0 -0.0 37.0681 29.3506 0.150077 -37.4396 0.311963 -5.63649 13.9044 -27.9114 2.07687 -1.50568 0.0 0.0 0.0 0.0 0.0 
3313.13 980.325 -836.596 -6.29899 64.9519 3.12399 3.82481 0.30932 -1.93399 3.81959 6.09114e-05 -1.95856 -18.5308 13.1527 6.01224 -19.0648 22.1387 10.8881 -0.0 0.0 -0.0 6.70149 3.33489 12.9942 -10.2379 -24.5955 58.4903 1.42878 -35.2879 0.454464 -4.17949 -0.165879 0.507718 0.75902 -2.12313 4.20001 -0.0 0.0 -0.0 8.35953 -12.2919 -15.6529 -52.5127 37.6983 -38.9973 0.384606 10.7871 -0.0363124 -84.9522 8.44595 -5.18575 -5.62671 -26.1124 21.657 0.0 0.0 0.0 -3.82374 -0.157111 1.95225 -3.82586 -0.0325897 1.95829 5.89941 -1.55674 2.45589 -8.25314 0.250803 1.24068 29.161 13.6856 -3.82992 -6.78405 0.0 0.0 -0.0 0.0 -0.0 38.4366 30.6626 0.375687 -34.1578 0.137511 -5.16347 11.0656 -27.5777 1.66487 -2.38501 0.0 0.0 0.0 0.0 0.0 
3295.51 976.792 -845.186 -9.14321 63.8456 6.10799 3.71932 0.412479 -2.27553 3.7121 0.0480251 -2.31209 -19.1198 12.519 4.80888 -19.6968 21.6156 9.65105 -0.0 0.0 -0.0 6.78221 1.34991 13.1614 -9.50743 -23.6569 58.2059 1.47091 -36.0765 0.479035 -2.02978 -0.0759254 0.248062 0.817999 -4.52995 3.5937 -0.0 0.0 -0.0 8.0963 -10.3073 -15.3337 -52.4505 37.7622 -41.1803 0.32969 9.27577 -0.0267456 -84.7731 8.42355 -5.1901 -5.66342 -26.285 21.7441 0.0 0.0 0.0 -3.71785 -0.224722 2.30165 -3.72079 -0.0778463 2.31128 3.84554 -1.78951 1.42513 -4.70203 0.164838 0.702592 29.3277 13.411 -3.84593 -7.32383 0.0 0.0 -0.0 0.0 -0.0 38.1548 31.0358 -0.0615562 -22.3737 -0.259894 -3.40181 8.96585 -28.1977 1.36299 -2.65187 0.0 0.0 0.0 0.0 0.0 
3277.21 969.111 -852.88 -11.1027 63.701 8.25876 3.68046 0.324026 -2.23179 3.67351 -0.0324165 -2.25494 -19.2542 12.163 4.39521 -19.8219 21.1566 9.14544 -0.0 0.0 -0.0 7.2218 0.00203892 14.0326 -8.61227 -23.425 57.3753 1.44106 -35.5194 0.46158 -1.14478 -0.0417397 0.140231 0.80921 -6.11925 2.86545 -0.0 0.0 -0.0 7.88872 -9.25533 -15.0235 -51.8329 37.3382 -43.4698 0.278539 7.85625 -0.0191263 -84.6824 8.41221 -5.19228 -5.54955 -26.16 21.1492 0.0 0.0 0.0 -3.67902 -0.137097 2.251 -3.68184 0.00638053 2.25517 2.1901 -1.16027 1.38834 -1.54722 0.0606074 0.229701 28.5477 13.2906 -3.75868 -7.81417 0.0 0.0 -0.0 0.0 -0.0 38.8651 32.5465 -0.445765 -17.7758 -0.315482 -2.69868 8.41875 -27.0117 1.27246 -2.97334 0.0 0.0 0.0 0.0 0.0 
3265.04 965.018 -865.674 -11.8963 63.2798 9.70451 3.91922 0.288302 -2.01403 3.91356 -0.0333262 -2.03428 -16.5025 12.4582 4.9581 -16.9058 21.1113 9.19563 -0.0 0.0 -0.0 7.43878 -0.566006 14.4681 -9.44984 -22.987 55.1442 1.53792 -37.2991 0.519075 0.111741 0.00392391 -0.0137313 0.835344 -8.12239 2.19245 -0.0 0.0 -0.0 7.8272 -8.12268 -14.9732 -51.892 37.3327 -46.7075 0.310167 8.73524 -0.0236897 -84.5404 8.39443 -5.19564 -5.40881 -25.4321 20.8559 0.0 0.0 0.0 -3.91805 -0.136582 2.02996 -3.92034 -0.00716049 2.03454 2.13649 -1.73031 0.247211 -2.39627 0.0912205 0.356408 31.3491 14.2823 -4.07289 -8.13514 0.0 0.0 -0.0 0.0 -0.0 38.5079 32.7078 -0.734628 -8.52952 -0.256091 -1.28277 5.92484 -28.778 0.911846 -5.52247 0.0 0.0 0.0 0.0 0.0 
